<svg xmlns="http://www.w3.org/2000/svg" viewBox="0 0 240 240" role="img" aria-labelledby="title"><title>Sara sales director</title><defs><radialGradient id="bg" cx="50%" cy="32%" r="76%"><stop stop-color="#7C3AED" stop-opacity=".42"/><stop offset=".62" stop-color="#111118"/><stop offset="1" stop-color="#050505"/></radialGradient><linearGradient id="ring" x1="18%" y1="10%" x2="84%" y2="92%"><stop stop-color="#fff"/><stop offset=".45" stop-color="#7C3AED"/><stop offset="1" stop-color="#F59E0B"/></linearGradient></defs><rect width="240" height="240" rx="120" fill="url(#bg)"/><circle cx="120" cy="116" r="88" fill="none" stroke="url(#ring)" stroke-width="5"/><path d="M62 214c10-42 34-64 58-64s48 22 58 64" fill="#1f1635"/><path d="M84 156h72l20 58H64z" fill="#1f1635"/><path d="M111 156l9 28 9-28" fill="#7C3AED"/><circle cx="120" cy="103" r="43" fill="#f0c7b0"/><path d="M77 100c8-38 33-56 67-44 19 7 30 23 29 48-29-19-61-24-96-4z" fill="#78350f"/><path d="M88 89c18-31 46-36 70-21" fill="none" stroke="#F59E0B" stroke-width="9" stroke-linecap="round" opacity=".8"/><circle cx="104" cy="110" r="5" fill="#111827"/><circle cx="136" cy="110" r="5" fill="#111827"/><path d="M106 131c9 7 20 7 29 0" fill="none" stroke="#7f1d1d" stroke-width="4" stroke-linecap="round"/><circle cx="181" cy="174" r="27" fill="#F59E0B"/><circle cx="181" cy="174" r="12" fill="none" stroke="#fff" stroke-width="4"/></svg>