<svg xmlns="http://www.w3.org/2000/svg" viewBox="0 0 240 240" role="img" aria-labelledby="title"><title>tax agent avatar</title><defs><radialGradient id="bg" cx="50%" cy="35%" r="72%"><stop offset="0%" stop-color="#EF4444" stop-opacity=".38"/><stop offset="58%" stop-color="#111827"/><stop offset="100%" stop-color="#050505"/></radialGradient><linearGradient id="ring" x1="18%" y1="10%" x2="84%" y2="92%"><stop stop-color="#A78BFA"/><stop offset=".5" stop-color="#EF4444"/><stop offset="1" stop-color="#4C1D95"/></linearGradient></defs><rect width="240" height="240" rx="120" fill="url(#bg)"/><circle cx="120" cy="112" r="82" fill="none" stroke="url(#ring)" stroke-width="5" opacity=".95"/><circle cx="120" cy="116" r="70" fill="#0b0b12" opacity=".38"/><path d="M58 207c9-39 34-59 62-59s53 20 62 59" fill="#111827"/><circle cx="120" cy="105" r="44" fill="#f0c7b0"/><path d="M78 98c4-33 25-50 53-47 25 3 42 20 40 51-30-22-60-22-93-4z" fill="#EF4444" opacity=".78"/><circle cx="104" cy="110" r="5" fill="#111827"/><circle cx="136" cy="110" r="5" fill="#111827"/><path d="M105 132c10 8 22 8 31 0" fill="none" stroke="#7f1d1d" stroke-width="4" stroke-linecap="round"/><path d="M79 178c26 22 56 22 82 0v34H79z" fill="#18181b"/><circle cx="184" cy="176" r="30" fill="#EF4444"/><text x="184" y="188" text-anchor="middle" font-family="Arial, sans-serif" font-size="28" font-weight="700" fill="white">TX</text></svg>